<svg id="visual" viewBox="0 0 960 540" width="960" height="540" xmlns="http://www.w3.org/2000/svg" xmlns:xlink="http://www.w3.org/1999/xlink" version="1.1"><rect x="0" y="0" width="960" height="540" fill="#FFF8E1"></rect><path d="M0 369L8.5 370.2C17 371.3 34 373.7 50.8 383.8C67.7 394 84.3 412 101.2 410.3C118 408.7 135 387.3 151.8 379.2C168.7 371 185.3 376 202.2 382.7C219 389.3 236 397.7 252.8 402.5C269.7 407.3 286.3 408.7 303.2 409C320 409.3 337 408.7 353.8 402.3C370.7 396 387.3 384 404.2 386.7C421 389.3 438 406.7 454.8 406.7C471.7 406.7 488.3 389.3 505.2 389.2C522 389 539 406 555.8 417.2C572.7 428.3 589.3 433.7 606.2 426.2C623 418.7 640 398.3 656.8 397.5C673.7 396.7 690.3 415.3 707.2 422.8C724 430.3 741 426.7 757.8 421.5C774.7 416.3 791.3 409.7 808.2 404.7C825 399.7 842 396.3 858.8 391.3C875.7 386.3 892.3 379.7 909.2 385C926 390.3 943 407.7 951.5 416.3L960 425L960 541L951.5 541C943 541 926 541 909.2 541C892.3 541 875.7 541 858.8 541C842 541 825 541 808.2 541C791.3 541 774.7 541 757.8 541C741 541 724 541 707.2 541C690.3 541 673.7 541 656.8 541C640 541 623 541 606.2 541C589.3 541 572.7 541 555.8 541C539 541 522 541 505.2 541C488.3 541 471.7 541 454.8 541C438 541 421 541 404.2 541C387.3 541 370.7 541 353.8 541C337 541 320 541 303.2 541C286.3 541 269.7 541 252.8 541C236 541 219 541 202.2 541C185.3 541 168.7 541 151.8 541C135 541 118 541 101.2 541C84.3 541 67.7 541 50.8 541C34 541 17 541 8.5 541L0 541Z" fill="#0f1e33"></path><path d="M0 430L8.5 428.2C17 426.3 34 422.7 50.8 417.8C67.7 413 84.3 407 101.2 406.2C118 405.3 135 409.7 151.8 407.7C168.7 405.7 185.3 397.3 202.2 396.2C219 395 236 401 252.8 407.2C269.7 413.3 286.3 419.7 303.2 423.3C320 427 337 428 353.8 422.2C370.7 416.3 387.3 403.7 404.2 394.3C421 385 438 379 454.8 387.3C471.7 395.7 488.3 418.3 505.2 424.8C522 431.3 539 421.7 555.8 417.2C572.7 412.7 589.3 413.3 606.2 416.8C623 420.3 640 426.7 656.8 430C673.7 433.3 690.3 433.7 707.2 436.3C724 439 741 444 757.8 444.3C774.7 444.7 791.3 440.3 808.2 432.8C825 425.3 842 414.7 858.8 412.7C875.7 410.7 892.3 417.3 909.2 416.2C926 415 943 406 951.5 401.5L960 397L960 541L951.5 541C943 541 926 541 909.2 541C892.3 541 875.7 541 858.8 541C842 541 825 541 808.2 541C791.3 541 774.7 541 757.8 541C741 541 724 541 707.2 541C690.3 541 673.7 541 656.8 541C640 541 623 541 606.2 541C589.3 541 572.7 541 555.8 541C539 541 522 541 505.2 541C488.3 541 471.7 541 454.8 541C438 541 421 541 404.2 541C387.3 541 370.7 541 353.8 541C337 541 320 541 303.2 541C286.3 541 269.7 541 252.8 541C236 541 219 541 202.2 541C185.3 541 168.7 541 151.8 541C135 541 118 541 101.2 541C84.3 541 67.7 541 50.8 541C34 541 17 541 8.5 541L0 541Z" fill="#132135"></path><path d="M0 424L8.5 423C17 422 34 420 50.8 416.3C67.7 412.7 84.3 407.3 101.2 404.2C118 401 135 400 151.8 403C168.7 406 185.3 413 202.2 419.7C219 426.3 236 432.7 252.8 439C269.7 445.3 286.3 451.7 303.2 449.5C320 447.3 337 436.7 353.8 436.2C370.7 435.7 387.3 445.3 404.2 441.7C421 438 438 421 454.8 415C471.7 409 488.3 414 505.2 414.5C522 415 539 411 555.8 416.5C572.7 422 589.3 437 606.2 434.3C623 431.7 640 411.3 656.8 404.8C673.7 398.3 690.3 405.7 707.2 408.2C724 410.7 741 408.3 757.8 415C774.7 421.7 791.3 437.3 808.2 443.2C825 449 842 445 858.8 439.7C875.7 434.3 892.3 427.7 909.2 419.7C926 411.7 943 402.3 951.5 397.7L960 393L960 541L951.5 541C943 541 926 541 909.2 541C892.3 541 875.7 541 858.8 541C842 541 825 541 808.2 541C791.3 541 774.7 541 757.8 541C741 541 724 541 707.2 541C690.3 541 673.7 541 656.8 541C640 541 623 541 606.2 541C589.3 541 572.7 541 555.8 541C539 541 522 541 505.2 541C488.3 541 471.7 541 454.8 541C438 541 421 541 404.2 541C387.3 541 370.7 541 353.8 541C337 541 320 541 303.2 541C286.3 541 269.7 541 252.8 541C236 541 219 541 202.2 541C185.3 541 168.7 541 151.8 541C135 541 118 541 101.2 541C84.3 541 67.7 541 50.8 541C34 541 17 541 8.5 541L0 541Z" fill="#162437"></path><path d="M0 456L8.5 447.8C17 439.7 34 423.3 50.8 420.8C67.7 418.3 84.3 429.7 101.2 432.3C118 435 135 429 151.8 425.7C168.7 422.3 185.3 421.7 202.2 425.5C219 429.3 236 437.7 252.8 440.5C269.7 443.3 286.3 440.7 303.2 436.2C320 431.7 337 425.3 353.8 422C370.7 418.7 387.3 418.3 404.2 417.7C421 417 438 416 454.8 423.7C471.7 431.3 488.3 447.7 505.2 455.7C522 463.7 539 463.3 555.8 460.7C572.7 458 589.3 453 606.2 445.8C623 438.7 640 429.3 656.8 426C673.7 422.7 690.3 425.3 707.2 423.8C724 422.3 741 416.7 757.8 420.3C774.7 424 791.3 437 808.2 443.8C825 450.7 842 451.3 858.8 452.8C875.7 454.3 892.3 456.7 909.2 456.2C926 455.7 943 452.3 951.5 450.7L960 449L960 541L951.5 541C943 541 926 541 909.2 541C892.3 541 875.7 541 858.8 541C842 541 825 541 808.2 541C791.3 541 774.7 541 757.8 541C741 541 724 541 707.2 541C690.3 541 673.7 541 656.8 541C640 541 623 541 606.2 541C589.3 541 572.7 541 555.8 541C539 541 522 541 505.2 541C488.3 541 471.7 541 454.8 541C438 541 421 541 404.2 541C387.3 541 370.7 541 353.8 541C337 541 320 541 303.2 541C286.3 541 269.7 541 252.8 541C236 541 219 541 202.2 541C185.3 541 168.7 541 151.8 541C135 541 118 541 101.2 541C84.3 541 67.7 541 50.8 541C34 541 17 541 8.5 541L0 541Z" fill="#1a2739"></path><path d="M0 433L8.5 433.8C17 434.7 34 436.3 50.8 441C67.7 445.7 84.3 453.3 101.2 455.8C118 458.3 135 455.7 151.8 455.8C168.7 456 185.3 459 202.2 463.2C219 467.3 236 472.7 252.8 471.5C269.7 470.3 286.3 462.7 303.2 461C320 459.3 337 463.7 353.8 460.3C370.7 457 387.3 446 404.2 438.5C421 431 438 427 454.8 426.7C471.7 426.3 488.3 429.7 505.2 438.7C522 447.7 539 462.3 555.8 465.2C572.7 468 589.3 459 606.2 457.2C623 455.3 640 460.7 656.8 462.7C673.7 464.7 690.3 463.3 707.2 465.5C724 467.7 741 473.3 757.8 471.2C774.7 469 791.3 459 808.2 453.8C825 448.7 842 448.3 858.8 446.5C875.7 444.7 892.3 441.3 909.2 446.2C926 451 943 464 951.5 470.5L960 477L960 541L951.5 541C943 541 926 541 909.2 541C892.3 541 875.7 541 858.8 541C842 541 825 541 808.2 541C791.3 541 774.7 541 757.8 541C741 541 724 541 707.2 541C690.3 541 673.7 541 656.8 541C640 541 623 541 606.2 541C589.3 541 572.7 541 555.8 541C539 541 522 541 505.2 541C488.3 541 471.7 541 454.8 541C438 541 421 541 404.2 541C387.3 541 370.7 541 353.8 541C337 541 320 541 303.2 541C286.3 541 269.7 541 252.8 541C236 541 219 541 202.2 541C185.3 541 168.7 541 151.8 541C135 541 118 541 101.2 541C84.3 541 67.7 541 50.8 541C34 541 17 541 8.5 541L0 541Z" fill="#1d2a3b"></path><path d="M0 470L8.5 473C17 476 34 482 50.8 479.5C67.7 477 84.3 466 101.2 460.8C118 455.7 135 456.3 151.8 456.7C168.7 457 185.3 457 202.2 455.3C219 453.7 236 450.3 252.8 449.5C269.7 448.7 286.3 450.3 303.2 453.8C320 457.3 337 462.7 353.8 464.7C370.7 466.7 387.3 465.3 404.2 463.7C421 462 438 460 454.8 463.7C471.7 467.3 488.3 476.7 505.2 474.2C522 471.7 539 457.3 555.8 450.2C572.7 443 589.3 443 606.2 446.3C623 449.7 640 456.3 656.8 458C673.7 459.7 690.3 456.3 707.2 459.2C724 462 741 471 757.8 472.8C774.7 474.7 791.3 469.3 808.2 463.8C825 458.3 842 452.7 858.8 451.8C875.7 451 892.3 455 909.2 460.7C926 466.3 943 473.7 951.5 477.3L960 481L960 541L951.5 541C943 541 926 541 909.2 541C892.3 541 875.7 541 858.8 541C842 541 825 541 808.2 541C791.3 541 774.7 541 757.8 541C741 541 724 541 707.2 541C690.3 541 673.7 541 656.8 541C640 541 623 541 606.2 541C589.3 541 572.7 541 555.8 541C539 541 522 541 505.2 541C488.3 541 471.7 541 454.8 541C438 541 421 541 404.2 541C387.3 541 370.7 541 353.8 541C337 541 320 541 303.2 541C286.3 541 269.7 541 252.8 541C236 541 219 541 202.2 541C185.3 541 168.7 541 151.8 541C135 541 118 541 101.2 541C84.3 541 67.7 541 50.8 541C34 541 17 541 8.5 541L0 541Z" fill="#212c3d"></path><path d="M0 473L8.5 470.3C17 467.7 34 462.3 50.8 461.3C67.7 460.3 84.3 463.7 101.2 468.5C118 473.3 135 479.7 151.8 480.7C168.7 481.7 185.3 477.3 202.2 474.8C219 472.3 236 471.7 252.8 475C269.7 478.3 286.3 485.7 303.2 488.3C320 491 337 489 353.8 484.7C370.7 480.3 387.3 473.7 404.2 472.8C421 472 438 477 454.8 476.3C471.7 475.7 488.3 469.3 505.2 468C522 466.7 539 470.3 555.8 472.5C572.7 474.7 589.3 475.3 606.2 476.8C623 478.3 640 480.7 656.8 482.8C673.7 485 690.3 487 707.2 482.8C724 478.7 741 468.3 757.8 469.5C774.7 470.7 791.3 483.3 808.2 487.2C825 491 842 486 858.8 479.8C875.7 473.7 892.3 466.3 909.2 464.5C926 462.7 943 466.3 951.5 468.2L960 470L960 541L951.5 541C943 541 926 541 909.2 541C892.3 541 875.7 541 858.8 541C842 541 825 541 808.2 541C791.3 541 774.7 541 757.8 541C741 541 724 541 707.2 541C690.3 541 673.7 541 656.8 541C640 541 623 541 606.2 541C589.3 541 572.7 541 555.8 541C539 541 522 541 505.2 541C488.3 541 471.7 541 454.8 541C438 541 421 541 404.2 541C387.3 541 370.7 541 353.8 541C337 541 320 541 303.2 541C286.3 541 269.7 541 252.8 541C236 541 219 541 202.2 541C185.3 541 168.7 541 151.8 541C135 541 118 541 101.2 541C84.3 541 67.7 541 50.8 541C34 541 17 541 8.5 541L0 541Z" fill="#242f3f"></path><path d="M0 476L8.5 480.8C17 485.7 34 495.3 50.8 499.5C67.7 503.7 84.3 502.3 101.2 497.7C118 493 135 485 151.8 483.2C168.7 481.3 185.3 485.7 202.2 486C219 486.3 236 482.7 252.8 486C269.7 489.3 286.3 499.7 303.2 503.5C320 507.3 337 504.7 353.8 504C370.7 503.3 387.3 504.7 404.2 502.5C421 500.3 438 494.7 454.8 490.7C471.7 486.7 488.3 484.3 505.2 483.5C522 482.7 539 483.3 555.8 487C572.7 490.7 589.3 497.3 606.2 498C623 498.7 640 493.3 656.8 492.7C673.7 492 690.3 496 707.2 493.5C724 491 741 482 757.8 483C774.7 484 791.3 495 808.2 496.7C825 498.3 842 490.7 858.8 489.5C875.7 488.3 892.3 493.7 909.2 498C926 502.3 943 505.7 951.5 507.3L960 509L960 541L951.5 541C943 541 926 541 909.2 541C892.3 541 875.7 541 858.8 541C842 541 825 541 808.2 541C791.3 541 774.7 541 757.8 541C741 541 724 541 707.2 541C690.3 541 673.7 541 656.8 541C640 541 623 541 606.2 541C589.3 541 572.7 541 555.8 541C539 541 522 541 505.2 541C488.3 541 471.7 541 454.8 541C438 541 421 541 404.2 541C387.3 541 370.7 541 353.8 541C337 541 320 541 303.2 541C286.3 541 269.7 541 252.8 541C236 541 219 541 202.2 541C185.3 541 168.7 541 151.8 541C135 541 118 541 101.2 541C84.3 541 67.7 541 50.8 541C34 541 17 541 8.5 541L0 541Z" fill="#273242"></path><path d="M0 505L8.5 503.2C17 501.3 34 497.7 50.8 497.7C67.7 497.7 84.3 501.3 101.2 502.7C118 504 135 503 151.8 504.8C168.7 506.7 185.3 511.3 202.2 513.5C219 515.7 236 515.3 252.8 514.3C269.7 513.3 286.3 511.7 303.2 508.7C320 505.7 337 501.3 353.8 502.8C370.7 504.3 387.3 511.7 404.2 514.7C421 517.7 438 516.3 454.8 513C471.7 509.7 488.3 504.3 505.2 504.7C522 505 539 511 555.8 512.5C572.7 514 589.3 511 606.2 510.5C623 510 640 512 656.8 512.3C673.7 512.7 690.3 511.3 707.2 508.7C724 506 741 502 757.8 501.7C774.7 501.3 791.3 504.7 808.2 504.2C825 503.7 842 499.3 858.8 497.2C875.7 495 892.3 495 909.2 497.2C926 499.3 943 503.7 951.5 505.8L960 508L960 541L951.5 541C943 541 926 541 909.2 541C892.3 541 875.7 541 858.8 541C842 541 825 541 808.2 541C791.3 541 774.7 541 757.8 541C741 541 724 541 707.2 541C690.3 541 673.7 541 656.8 541C640 541 623 541 606.2 541C589.3 541 572.7 541 555.8 541C539 541 522 541 505.2 541C488.3 541 471.7 541 454.8 541C438 541 421 541 404.2 541C387.3 541 370.7 541 353.8 541C337 541 320 541 303.2 541C286.3 541 269.7 541 252.8 541C236 541 219 541 202.2 541C185.3 541 168.7 541 151.8 541C135 541 118 541 101.2 541C84.3 541 67.7 541 50.8 541C34 541 17 541 8.5 541L0 541Z" fill="#2b3544"></path><path d="M0 509L8.5 511.7C17 514.3 34 519.7 50.8 519.7C67.7 519.7 84.3 514.3 101.2 515C118 515.7 135 522.3 151.8 522.5C168.7 522.7 185.3 516.3 202.2 513.5C219 510.7 236 511.3 252.8 514.2C269.7 517 286.3 522 303.2 523.8C320 525.7 337 524.3 353.8 524C370.7 523.7 387.3 524.3 404.2 525.3C421 526.3 438 527.7 454.8 527.3C471.7 527 488.3 525 505.2 522.8C522 520.7 539 518.3 555.8 518.2C572.7 518 589.3 520 606.2 522C623 524 640 526 656.8 527.3C673.7 528.7 690.3 529.3 707.2 527C724 524.7 741 519.3 757.8 516.5C774.7 513.7 791.3 513.3 808.2 514.5C825 515.7 842 518.3 858.8 519.8C875.7 521.3 892.3 521.7 909.2 520.5C926 519.3 943 516.7 951.5 515.3L960 514L960 541L951.5 541C943 541 926 541 909.2 541C892.3 541 875.7 541 858.8 541C842 541 825 541 808.2 541C791.3 541 774.7 541 757.8 541C741 541 724 541 707.2 541C690.3 541 673.7 541 656.8 541C640 541 623 541 606.2 541C589.3 541 572.7 541 555.8 541C539 541 522 541 505.2 541C488.3 541 471.7 541 454.8 541C438 541 421 541 404.2 541C387.3 541 370.7 541 353.8 541C337 541 320 541 303.2 541C286.3 541 269.7 541 252.8 541C236 541 219 541 202.2 541C185.3 541 168.7 541 151.8 541C135 541 118 541 101.2 541C84.3 541 67.7 541 50.8 541C34 541 17 541 8.5 541L0 541Z" fill="#2e3846"></path></svg>